<svg width="24" height="24" viewBox="0 0 24 24" fill="none" xmlns="http://www.w3.org/2000/svg">
<path fill-rule="evenodd" clip-rule="evenodd" d="M5.8884 18.4131C4.59147 17.3821 4.37597 15.4948 5.40706 14.1979L12.8427 4.84515C13.8738 3.54822 15.7611 3.33272 17.058 4.36381L20.3888 7.01189C21.6857 8.04298 21.9012 9.93021 20.8701 11.2271L13.4345 20.5799C12.4034 21.8768 10.5161 22.0923 9.2192 21.0612L5.8884 18.4131ZM11.6334 8.7766L14.0169 5.77863C14.5324 5.13016 15.476 5.02241 16.1245 5.53796L19.4553 8.18604C20.1038 8.70158 20.2115 9.6452 19.696 10.2937L17.3125 13.2916L11.6334 8.7766ZM10.6999 9.95075L6.58121 15.1314C6.06566 15.7798 6.17341 16.7235 6.82188 17.239L10.1527 19.8871C10.8011 20.4026 11.7448 20.2949 12.2603 19.6464L16.379 14.4658L10.6999 9.95075Z" fill="white"/>
<path d="M3.51054 3.38496C3.635 2.87168 4.365 2.87168 4.48946 3.38496L4.83193 4.79729C4.87637 4.98055 5.01945 5.12363 5.20271 5.16807L6.61504 5.51054C7.12832 5.635 7.12832 6.365 6.61504 6.48946L5.20271 6.83193C5.01945 6.87637 4.87637 7.01945 4.83193 7.20271L4.48946 8.61504C4.365 9.12832 3.635 9.12832 3.51054 8.61504L3.16807 7.20271C3.12363 7.01945 2.98055 6.87637 2.79729 6.83193L1.38496 6.48946C0.87168 6.365 0.871679 5.635 1.38496 5.51054L2.79729 5.16807C2.98055 5.12363 3.12363 4.98055 3.16807 4.79729L3.51054 3.38496Z" fill="white"/>
<path fill-rule="evenodd" clip-rule="evenodd" d="M4 3.93109L3.75542 4.93972C3.65766 5.34288 3.34288 5.65766 2.93972 5.75542L1.93109 6L2.93972 6.24458C3.34288 6.34234 3.65766 6.65712 3.75542 7.06029L4 8.06891L4.24458 7.06029C4.34234 6.65712 4.65712 6.34234 5.06029 6.24458L6.06891 6L5.06029 5.75542C4.65712 5.65766 4.34234 5.34288 4.24458 4.93972L4 3.93109ZM4.48946 3.38496C4.365 2.87168 3.635 2.87168 3.51054 3.38496L3.16807 4.79729C3.12363 4.98055 2.98055 5.12363 2.79729 5.16807L1.38496 5.51054C0.871679 5.635 0.87168 6.365 1.38496 6.48946L2.79729 6.83193C2.98055 6.87637 3.12363 7.01945 3.16807 7.20271L3.51054 8.61504C3.635 9.12832 4.365 9.12832 4.48946 8.61504L4.83193 7.20271C4.87637 7.01945 5.01945 6.87637 5.20271 6.83193L6.61504 6.48946C7.12832 6.365 7.12832 5.635 6.61504 5.51054L5.20271 5.16807C5.01945 5.12363 4.87637 4.98055 4.83193 4.79729L4.48946 3.38496Z" fill="white"/>
<path fill-rule="evenodd" clip-rule="evenodd" d="M10.1 21C10.1 20.5029 10.5029 20.1 11 20.1L22 20.1C22.4971 20.1 22.9 20.5029 22.9 21C22.9 21.4971 22.4971 21.9 22 21.9H11C10.5029 21.9 10.1 21.4971 10.1 21Z" fill="white"/>
<path d="M11 2C11 2.55228 10.5523 3 10 3C9.44771 3 9 2.55228 9 2C9 1.44772 9.44771 1 10 1C10.5523 1 11 1.44772 11 2Z" fill="white"/>
<path d="M4 21C4 21.5523 3.55228 22 3 22C2.44772 22 2 21.5523 2 21C2 20.4477 2.44772 20 3 20C3.55228 20 4 20.4477 4 21Z" fill="white"/>
<path d="M23 2C23 2.55228 22.5523 3 22 3C21.4477 3 21 2.55228 21 2C21 1.44772 21.4477 1 22 1C22.5523 1 23 1.44772 23 2Z" fill="white"/>
<path fill-rule="evenodd" clip-rule="evenodd" d="M11.6334 8.7766L14.0169 5.77863C14.5324 5.13016 15.476 5.02241 16.1245 5.53796L19.4553 8.18604C20.1038 8.70158 20.2115 9.6452 19.696 10.2937L17.3125 13.2916L11.6334 8.7766ZM11.9144 8.74451L17.2804 13.0106L19.5394 10.1692C19.9862 9.60719 19.8928 8.7894 19.3308 8.34259L16 5.69451C15.438 5.24771 14.6202 5.34109 14.1734 5.90309L11.9144 8.74451ZM10.732 10.2318L6.73776 15.2558C6.29095 15.8178 6.38434 16.6356 6.94634 17.0824L10.2771 19.7305C10.8391 20.1773 11.6569 20.0839 12.1037 19.5219L16.098 14.4979L10.732 10.2318ZM6.58121 15.1314C6.06566 15.7798 6.17341 16.7235 6.82188 17.239L10.1527 19.8871C10.8011 20.4026 11.7448 20.2949 12.2603 19.6464L16.379 14.4658L10.6999 9.95075L6.58121 15.1314ZM5.76393 18.5697C4.38054 17.4699 4.15068 15.4568 5.25051 14.0734L12.6862 4.72069C13.786 3.3373 15.7991 3.10743 17.1824 4.20726L20.5133 6.85534C21.8966 7.95517 22.1265 9.96821 21.0267 11.3516L13.591 20.7043C12.4912 22.0877 10.4781 22.3176 9.09474 21.2178L5.76393 18.5697ZM5.40706 14.1979C4.37597 15.4948 4.59147 17.3821 5.8884 18.4131L9.2192 21.0612C10.5161 22.0923 12.4034 21.8768 13.4345 20.5799L20.8701 11.2271C21.9012 9.93021 21.6857 8.04298 20.3888 7.01189L17.058 4.36381C15.7611 3.33272 13.8738 3.54822 12.8427 4.84515L5.40706 14.1979Z" fill="white"/>
<path fill-rule="evenodd" clip-rule="evenodd" d="M10.1 21C10.1 20.5029 10.5029 20.1 11 20.1L22 20.1C22.4971 20.1 22.9 20.5029 22.9 21C22.9 21.4971 22.4971 21.9 22 21.9H11C10.5029 21.9 10.1 21.4971 10.1 21Z" fill="white"/>
</svg>
