<svg width="24" height="24" viewBox="0 0 24 24" fill="none" xmlns="http://www.w3.org/2000/svg">
<path fill-rule="evenodd" clip-rule="evenodd" d="M8 5C8 2.79086 9.79086 1 12 1C14.2091 1 16 2.79086 16 5V12C16 14.2091 14.2091 16 12 16C9.79086 16 8 14.2091 8 12V5ZM12 2.5C13.3807 2.5 14.5 3.61929 14.5 5V12C14.5 13.3807 13.3807 14.5 12 14.5C10.6193 14.5 9.5 13.3807 9.5 12V5C9.5 3.61929 10.6193 2.5 12 2.5Z" fill="white"/>
<path d="M5.25 11C4.83579 11 4.5 11.3358 4.5 11.75V12C4.5 15.889 7.46001 19.0867 11.25 19.463V22.25C11.25 22.6642 11.5858 23 12 23C12.4142 23 12.75 22.6642 12.75 22.25V19.463C16.54 19.0867 19.5 15.889 19.5 12V11.75C19.5 11.3358 19.1642 11 18.75 11C18.3358 11 18 11.3358 18 11.75V12C18 12.1684 17.9931 12.3351 17.9795 12.5C17.7254 15.5798 15.1453 18 12 18C8.85467 18 6.27461 15.5798 6.02054 12.5C6.00694 12.3351 6 12.1684 6 12V11.75C6 11.3358 5.66421 11 5.25 11Z" fill="white"/>
</svg>
