<svg width="24" height="24" viewBox="0 0 24 24" fill="none" xmlns="http://www.w3.org/2000/svg">
<path d="M7.43949 3.83408C7.70916 2.72197 9.29084 2.72197 9.56051 3.83408L10.3025 6.89413C10.3988 7.29118 10.7088 7.6012 11.1059 7.69748L14.1659 8.43949C15.278 8.70916 15.278 10.2908 14.1659 10.5605L11.1059 11.3025C10.7088 11.3988 10.3988 11.7088 10.3025 12.1059L9.56051 15.1659C9.29084 16.278 7.70916 16.278 7.43949 15.1659L6.69748 12.1059C6.6012 11.7088 6.29118 11.3988 5.89413 11.3025L2.83408 10.5605C1.72197 10.2908 1.72197 8.70916 2.83408 8.43949L5.89413 7.69748C6.29118 7.6012 6.6012 7.29118 6.69748 6.89413L7.43949 3.83408Z" fill="white"/>
<path d="M16.3474 14.5133C16.5133 13.8289 17.4867 13.8289 17.6526 14.5133L18.1092 16.3964C18.1685 16.6407 18.3593 16.8315 18.6036 16.8908L20.4867 17.3474C21.1711 17.5133 21.1711 18.4867 20.4867 18.6526L18.6036 19.1092C18.3593 19.1685 18.1685 19.3593 18.1092 19.6036L17.6526 21.4867C17.4867 22.1711 16.5133 22.1711 16.3474 21.4867L15.8908 19.6036C15.8315 19.3593 15.6407 19.1685 15.3964 19.1092L13.5133 18.6526C12.8289 18.4867 12.8289 17.5133 13.5133 17.3474L15.3964 16.8908C15.6407 16.8315 15.8315 16.6407 15.8908 16.3964L16.3474 14.5133Z" fill="white"/>
</svg>
