<svg width="390" height="844" viewBox="0 0 390 844" fill="none" xmlns="http://www.w3.org/2000/svg">
<g clip-path="url(#clip0_40016065_43150)">
<path d="M0 75.2C0 48.8775 0 35.7163 5.12269 25.6624C9.62874 16.8188 16.8188 9.62874 25.6624 5.12269C35.7163 0 48.8775 0 75.2 0H314.8C341.122 0 354.284 0 364.338 5.12269C373.181 9.62874 380.371 16.8188 384.877 25.6624C390 35.7163 390 48.8775 390 75.2V768.8C390 795.122 390 808.284 384.877 818.338C380.371 827.181 373.181 834.371 364.338 838.877C354.284 844 341.122 844 314.8 844H75.2C48.8775 844 35.7163 844 25.6624 838.877C16.8188 834.371 9.62874 827.181 5.12269 818.338C0 808.284 0 795.122 0 768.8V75.2Z" fill="#0B070E"/>
<g opacity="0.5" filter="url(#filter0_f_40016065_43150)">
<path d="M548.502 180.929C527.074 245.511 378.142 254.214 215.852 200.368C53.5619 146.522 -60.6297 50.5175 -39.2022 -14.0643C-17.7747 -78.6461 131.158 -87.3492 293.448 -33.5033C455.738 20.3427 569.929 116.347 548.502 180.929Z" fill="url(#paint0_linear_40016065_43150)"/>
</g>
<g filter="url(#filter1_f_40016065_43150)">
<ellipse cx="172.866" cy="215.15" rx="116.145" ry="190.058" transform="rotate(89.2714 172.866 215.15)" fill="#0B070E"/>
</g>
<g filter="url(#filter2_f_40016065_43150)">
<ellipse cx="473.625" cy="265.121" rx="116.145" ry="156.16" transform="rotate(89.2714 473.625 265.121)" fill="#0B070E"/>
</g>
<path d="M58.1387 27.1543C60.7783 27.1543 62.978 29.0054 62.978 33.2056V33.2222C62.978 37.1816 61.1436 39.5474 58.0889 39.5474C55.8726 39.5474 54.2124 38.269 53.8389 36.4595L53.8223 36.3682H55.9473L55.9722 36.4429C56.2959 37.2646 57.0264 37.7959 58.0972 37.7959C60.0229 37.7959 60.8281 35.9531 60.9111 33.687C60.9194 33.5625 60.9277 33.438 60.9277 33.3052H60.8779C60.4048 34.4009 59.2095 35.231 57.5908 35.231C55.2832 35.231 53.6562 33.5708 53.6562 31.3213V31.3047C53.6562 28.8892 55.5571 27.1543 58.1387 27.1543ZM58.1387 33.5791C59.5083 33.5791 60.5542 32.6162 60.5542 31.2798V31.2715C60.5542 29.9434 59.5083 28.9058 58.1636 28.9058C56.8354 28.9058 55.7646 29.9351 55.7646 31.23V31.2466C55.7646 32.6079 56.7773 33.5791 58.1387 33.5791ZM65.6509 31.5039C64.9785 31.5039 64.4473 30.9727 64.4473 30.3003C64.4473 29.6279 64.9785 29.105 65.6509 29.105C66.3232 29.105 66.8462 29.6279 66.8462 30.3003C66.8462 30.9727 66.3232 31.5039 65.6509 31.5039ZM65.6509 37.5967C64.9785 37.5967 64.4473 37.0654 64.4473 36.3931C64.4473 35.7207 64.9785 35.1978 65.6509 35.1978C66.3232 35.1978 66.8462 35.7207 66.8462 36.3931C66.8462 37.0654 66.3232 37.5967 65.6509 37.5967ZM74.209 39.3398V37.0405H68.2324V35.2144L73.2046 27.3618H76.251V35.2808H77.8779V37.0405H76.251V39.3398H74.209ZM70.1582 35.3306H74.2422V28.9805H74.1924L70.1582 35.2725V35.3306ZM82.2192 39.3398V29.4038H82.1694L79.0732 31.5288V29.5615L82.2026 27.3618H84.3193V39.3398H82.2192Z" fill="white"/>
<rect opacity="0.35" x="332.072" y="27.5" width="24" height="12" rx="3.8" stroke="white"/>
<path opacity="0.4" d="M357.572 31.7812V35.8567C358.377 35.5116 358.9 34.7086 358.9 33.819C358.9 32.9294 358.377 32.1264 357.572 31.7812Z" fill="white"/>
<rect x="333.572" y="29" width="21" height="9" rx="2.5" fill="white"/>
<path fill-rule="evenodd" clip-rule="evenodd" d="M315.843 30.104C318.33 30.1041 320.722 31.0262 322.524 32.6796C322.66 32.8073 322.877 32.8057 323.011 32.676L324.308 31.4126C324.376 31.3468 324.414 31.2577 324.413 31.165C324.413 31.0724 324.374 30.9837 324.305 30.9187C319.574 26.544 312.111 26.544 307.38 30.9187C307.311 30.9837 307.272 31.0723 307.271 31.165C307.271 31.2577 307.309 31.3468 307.376 31.4126L308.674 32.676C308.808 32.8059 309.025 32.8075 309.16 32.6796C310.963 31.0261 313.355 30.104 315.843 30.104ZM315.839 34.3243C317.197 34.3242 318.506 34.8359 319.512 35.76C319.648 35.8912 319.862 35.8883 319.995 35.7536L321.282 34.4343C321.35 34.3651 321.388 34.2712 321.387 34.1737C321.386 34.0761 321.346 33.9831 321.277 33.9153C318.213 31.0244 313.468 31.0244 310.405 33.9153C310.335 33.9831 310.296 34.0762 310.295 34.1738C310.294 34.2714 310.332 34.3652 310.4 34.4343L311.687 35.7536C311.819 35.8883 312.034 35.8912 312.17 35.76C313.175 34.8365 314.483 34.3248 315.839 34.3243ZM318.364 37.1178C318.366 37.2232 318.329 37.3247 318.261 37.3985L316.085 39.8533C316.021 39.9254 315.934 39.966 315.843 39.966C315.752 39.966 315.665 39.9254 315.602 39.8533L313.425 37.3985C313.357 37.3247 313.32 37.2231 313.322 37.1177C313.324 37.0124 313.365 36.9126 313.435 36.842C314.825 35.5281 316.861 35.5281 318.251 36.842C318.321 36.9127 318.362 37.0125 318.364 37.1178Z" fill="white"/>
<path fill-rule="evenodd" clip-rule="evenodd" d="M299.772 28.6824C299.772 28.0493 299.295 27.5361 298.706 27.5361H297.639C297.05 27.5361 296.572 28.0493 296.572 28.6824V38.6163C296.572 39.2494 297.05 39.7625 297.639 39.7625H298.706C299.295 39.7625 299.772 39.2494 299.772 38.6163V28.6824ZM292.338 29.9814H293.405C293.994 29.9814 294.471 30.5069 294.471 31.1552V38.5888C294.471 39.237 293.994 39.7625 293.405 39.7625H292.338C291.749 39.7625 291.271 39.237 291.271 38.5888V31.1552C291.271 30.5069 291.749 29.9814 292.338 29.9814ZM288.006 32.6305H286.94C286.351 32.6305 285.873 33.1627 285.873 33.8191V38.5739C285.873 39.2303 286.351 39.7625 286.94 39.7625H288.006C288.595 39.7625 289.073 39.2303 289.073 38.5739V33.8191C289.073 33.1627 288.595 32.6305 288.006 32.6305ZM282.706 35.0758H281.639C281.05 35.0758 280.572 35.6003 280.572 36.2475V38.5909C280.572 39.238 281.05 39.7625 281.639 39.7625H282.706C283.295 39.7625 283.772 39.238 283.772 38.5909V36.2475C283.772 35.6003 283.295 35.0758 282.706 35.0758Z" fill="white"/>
</g>
<defs>
<filter id="filter0_f_40016065_43150" x="-141.787" y="-168.819" width="792.873" height="504.504" filterUnits="userSpaceOnUse" color-interpolation-filters="sRGB">
<feFlood flood-opacity="0" result="BackgroundImageFix"/>
<feBlend mode="normal" in="SourceGraphic" in2="BackgroundImageFix" result="shape"/>
<feGaussianBlur stdDeviation="50" result="effect1_foregroundBlur_40016065_43150"/>
</filter>
<filter id="filter1_f_40016065_43150" x="-125.282" y="-9.11074" width="596.296" height="448.521" filterUnits="userSpaceOnUse" color-interpolation-filters="sRGB">
<feFlood flood-opacity="0" result="BackgroundImageFix"/>
<feBlend mode="normal" in="SourceGraphic" in2="BackgroundImageFix" result="shape"/>
<feGaussianBlur stdDeviation="54.05" result="effect1_foregroundBlur_40016065_43150"/>
</filter>
<filter id="filter2_f_40016065_43150" x="209.371" y="40.8688" width="528.509" height="448.505" filterUnits="userSpaceOnUse" color-interpolation-filters="sRGB">
<feFlood flood-opacity="0" result="BackgroundImageFix"/>
<feBlend mode="normal" in="SourceGraphic" in2="BackgroundImageFix" result="shape"/>
<feGaussianBlur stdDeviation="54.05" result="effect1_foregroundBlur_40016065_43150"/>
</filter>
<linearGradient id="paint0_linear_40016065_43150" x1="-39.2022" y1="-14.0643" x2="548.502" y2="180.929" gradientUnits="userSpaceOnUse">
<stop stop-color="#98C6F7"/>
<stop offset="1" stop-color="#EB5B92"/>
</linearGradient>
<clipPath id="clip0_40016065_43150">
<path d="M0 75.2C0 48.8775 0 35.7163 5.12269 25.6624C9.62874 16.8188 16.8188 9.62874 25.6624 5.12269C35.7163 0 48.8775 0 75.2 0H314.8C341.122 0 354.284 0 364.338 5.12269C373.181 9.62874 380.371 16.8188 384.877 25.6624C390 35.7163 390 48.8775 390 75.2V768.8C390 795.122 390 808.284 384.877 818.338C380.371 827.181 373.181 834.371 364.338 838.877C354.284 844 341.122 844 314.8 844H75.2C48.8775 844 35.7163 844 25.6624 838.877C16.8188 834.371 9.62874 827.181 5.12269 818.338C0 808.284 0 795.122 0 768.8V75.2Z" fill="white"/>
</clipPath>
</defs>
</svg>
