<svg width="24" height="24" viewBox="0 0 24 24" fill="none" xmlns="http://www.w3.org/2000/svg">
<path d="M8.25 3.75C8.25 2.92157 8.92157 2.25 9.75 2.25H18.75C19.5784 2.25 20.25 2.92157 20.25 3.75V17.25C20.25 18.0784 19.5784 18.75 18.75 18.75M3.75 17.3653C3.75 17.3653 5.11364 16.6153 6.75 16.6153C8.93182 16.6153 9.27273 17.9999 12 17.9999C14.1818 17.9999 15.75 17.2499 15.75 17.2499M3.75 17.3653V8.24994C3.75 7.42152 4.42157 6.74994 5.25 6.74994H14.25C15.0784 6.74994 15.75 7.42152 15.75 8.24994V17.2499M3.75 17.3653V20.2499C3.75 21.0784 4.42157 21.7499 5.25 21.7499H14.25C15.0784 21.7499 15.75 21.0784 15.75 20.2499V17.2499M9 11.625C9 10.5895 9.83947 9.75 10.875 9.75C11.9105 9.75 12.75 10.5895 12.75 11.625C12.75 12.6605 11.9105 13.5 10.875 13.5C9.83947 13.5 9 12.6605 9 11.625Z" stroke="white" stroke-width="1.5" stroke-linecap="round" stroke-linejoin="round"/>
</svg>
