<svg width="24" height="24" viewBox="0 0 24 24" fill="none" xmlns="http://www.w3.org/2000/svg">
<path fill-rule="evenodd" clip-rule="evenodd" d="M8.00012 6.99998C8.00012 6.44769 8.44784 5.99998 9.00012 5.99998H15.0001C15.5524 5.99998 16.0001 6.44769 16.0001 6.99998C16.0001 7.55226 15.5524 7.99998 15.0001 7.99998H13.0001V16H15.0001C15.5524 16 16.0001 16.4477 16.0001 17C16.0001 17.5523 15.5524 18 15.0001 18H9.00012C8.44784 18 8.00012 17.5523 8.00012 17C8.00012 16.4477 8.44784 16 9.00012 16H11.0001V7.99998H9.00012C8.44784 7.99998 8.00012 7.55226 8.00012 6.99998Z" fill="white"/>
<path d="M19.0001 22C19.0001 22.5523 18.5524 23 18.0001 23C17.4478 23 17.0001 22.5523 17.0001 22C17.0001 21.4477 17.4478 21 18.0001 21C18.5524 21 19.0001 21.4477 19.0001 22Z" fill="white"/>
<path d="M23.0001 18C23.0001 18.5523 22.5524 19 22.0001 19C21.4478 19 21.0001 18.5523 21.0001 18C21.0001 17.4477 21.4478 17 22.0001 17C22.5524 17 23.0001 17.4477 23.0001 18Z" fill="white"/>
<path fill-rule="evenodd" clip-rule="evenodd" d="M9.00475 22.3147C8.83094 22.7804 8.31253 23.017 7.84685 22.8432C4.83042 21.7173 2.40745 19.3801 1.16986 16.4228C0.977969 15.9643 1.19412 15.437 1.65265 15.2451C2.11117 15.0533 2.63843 15.2694 2.83032 15.7279C3.87633 18.2274 5.92666 20.2052 8.47627 21.1568C8.94195 21.3306 9.17855 21.849 9.00475 22.3147Z" fill="white"/>
<path fill-rule="evenodd" clip-rule="evenodd" d="M22.3155 9.02074C21.8499 9.19491 21.3313 8.95871 21.1572 8.49316C20.198 5.92951 18.1972 3.87069 15.6694 2.83248C15.2097 2.64364 14.99 2.11782 15.1789 1.65803C15.3677 1.19825 15.8935 0.978608 16.3533 1.16745C19.3428 2.39531 21.7078 4.82795 22.843 7.86244C23.0172 8.32798 22.781 8.84657 22.3155 9.02074Z" fill="white"/>
<path d="M3.71066 1.58494C3.83512 1.07166 4.56512 1.07166 4.68959 1.58494L5.03206 2.99727C5.07649 3.18052 5.21958 3.32361 5.40283 3.36804L6.81516 3.71051C7.32844 3.83498 7.32844 4.56498 6.81516 4.68944L5.40283 5.03191C5.37993 5.03747 5.35765 5.04456 5.33611 5.05309C5.18535 5.11275 5.07094 5.24234 5.03206 5.40269L4.68959 6.81502C4.68181 6.8471 4.67166 6.87717 4.65945 6.90524C4.47624 7.32629 3.82734 7.29622 3.71066 6.81502L3.36819 5.40269C3.36541 5.39124 3.36225 5.37994 3.35871 5.36881C3.30571 5.20193 3.16921 5.07357 2.99741 5.03191L1.58508 4.68944C1.553 4.68167 1.52293 4.67152 1.49486 4.65931C1.07381 4.4761 1.10388 3.8272 1.58508 3.71051L2.99741 3.36805C3.18067 3.32361 3.32375 3.18052 3.36819 2.99727L3.71066 1.58494Z" fill="white"/>
</svg>
