<svg width="24" height="24" viewBox="0 0 24 24" fill="none" xmlns="http://www.w3.org/2000/svg">
<path fill-rule="evenodd" clip-rule="evenodd" d="M0.502481 16.316C0.701767 14.9959 2.00983 14.1374 3.31205 14.4723L6.4644 15.2828C7.03815 15.4305 7.38265 16.0123 7.23393 16.5817C7.08512 17.1509 6.49908 17.4929 5.92533 17.3453L4.08744 16.8717C5.56941 19.0571 8.37192 22.2032 13.1949 21.8405C15.6229 21.6578 17.7294 20.5926 19.2857 19.318C20.062 18.6821 20.6859 18.0067 21.1314 17.3893C21.5895 16.7543 21.813 16.2448 21.8736 15.943C21.9894 15.3663 22.5541 14.9924 23.1353 15.1071C23.7166 15.2219 24.0947 15.7821 23.979 16.359C23.8351 17.0768 23.4238 17.8709 22.8765 18.6295C22.3166 19.4055 21.5638 20.2144 20.6529 20.9606C18.8341 22.4502 16.3195 23.7416 13.357 23.9645C7.46005 24.408 4.0537 20.5956 2.39115 18.1823L2.13529 19.8815C2.04748 20.4632 1.50081 20.8641 0.91459 20.777C0.328404 20.6898 -0.0754942 20.1477 0.0122466 19.566L0.502481 16.316ZM16.7994 15.6002C17.4619 15.6002 17.9993 16.1369 17.9996 16.7994C17.9996 17.4622 17.4621 17.9996 16.7994 17.9996C16.1368 17.9994 15.6001 17.462 15.6001 16.7994C15.6004 16.1371 16.137 15.6005 16.7994 15.6002ZM11.4126 8.86194C11.5621 8.24615 12.4381 8.24611 12.5874 8.86194L12.9986 10.5573C13.052 10.7768 13.2233 10.9482 13.4429 11.0016L15.1382 11.4127C15.7537 11.5623 15.7538 12.438 15.1382 12.5875L13.4429 12.9987C13.2232 13.052 13.052 13.2233 12.9986 13.443L12.5874 15.1383C12.4379 15.7538 11.5622 15.7538 11.4126 15.1383L11.0015 13.443C10.9482 13.2234 10.7767 13.0521 10.5572 12.9987L8.86186 12.5875C8.82337 12.5782 8.78713 12.566 8.75346 12.5514C8.24833 12.3315 8.28455 11.5528 8.86186 11.4127L10.5572 11.0016C10.7767 10.9482 10.9481 10.7768 11.0015 10.5573L11.4126 8.86194ZM10.6421 0.0357685C16.5386 -0.40779 19.9452 3.4036 21.608 5.81702L21.8648 4.11878C21.9526 3.53707 22.4993 3.13613 23.0855 3.22327C23.6715 3.31058 24.0756 3.85262 23.9878 4.43421L23.4966 7.68421C23.2972 9.00412 21.9901 9.8617 20.688 9.52698L17.5357 8.71643C16.9619 8.56886 16.6175 7.98794 16.7662 7.41858C16.9149 6.8493 17.5001 6.50752 18.0738 6.65491L19.9107 7.12659C18.4284 4.94136 15.6266 1.7973 10.8052 2.15979C8.377 2.34245 6.26975 3.40755 4.71342 4.68225C3.93718 5.31806 3.3141 5.99358 2.86869 6.61096C2.41084 7.24563 2.18716 7.75444 2.1265 8.05628C2.0108 8.63316 1.44517 9.008 0.863809 8.89319C0.282743 8.77825 -0.0944432 8.2179 0.0210356 7.64124C0.164992 6.92349 0.576305 6.1293 1.12357 5.37073C1.68347 4.59469 2.4362 3.78586 3.34721 3.03967C5.16587 1.55011 7.67974 0.258712 10.6421 0.0357685ZM7.19975 6.00061C7.86237 6.00061 8.39978 6.53725 8.39994 7.19983C8.39994 7.86255 7.86247 8.40003 7.19975 8.40003C6.53714 8.39988 6.00053 7.86246 6.00053 7.19983C6.00069 6.53734 6.53725 6.00076 7.19975 6.00061Z" fill="white"/>
</svg>
