<svg width="24" height="24" viewBox="0 0 24 24" fill="none" xmlns="http://www.w3.org/2000/svg">
<path d="M19.5 12L21.3104 10.1891C21.8962 9.60331 21.8962 8.65356 21.3104 8.06778L15.9318 2.68909C15.346 2.10331 14.3962 2.10331 13.8104 2.6891L12 4.49998M19.5 12L12 4.49998M12 4.49998C8.21402 4.07932 4.43862 7.01276 3.81238 10.7702L2.27414 19.9996C2.18954 20.5072 2.36728 20.9811 2.69307 21.3069C3.01887 21.6327 3.49272 21.8104 4.00033 21.7258L13.2298 20.1876C16.9872 19.5613 19.9206 15.7859 19.5 12M9.65898 14.341C9.25181 13.9338 8.99997 13.3713 8.99997 12.75C8.99997 11.5073 10.0073 10.5 11.25 10.5C12.4926 10.5 13.5 11.5073 13.5 12.75C13.5 13.9926 12.4926 15 11.25 15C10.6287 15 10.0662 14.7481 9.65898 14.341ZM9.65898 14.341L2.69307 21.3069" stroke="white" stroke-width="1.5" stroke-linecap="round" stroke-linejoin="round"/>
</svg>
