<svg width="24" height="24" viewBox="0 0 24 24" fill="none" xmlns="http://www.w3.org/2000/svg">
<path d="M20.5977 5.08752C20.7461 5.10683 20.8918 5.15952 21.0215 5.24573C21.0769 5.28258 21.1295 5.3251 21.1777 5.37366C21.567 5.76535 21.5646 6.3984 21.1729 6.78772L9.68262 18.2096C9.29263 18.5972 8.66249 18.597 8.27246 18.2096L2.82715 12.8004C2.43532 12.4112 2.43403 11.7772 2.82324 11.3854C3.21249 10.994 3.84561 10.9924 4.2373 11.3815L8.97656 16.0895L19.7637 5.36975C19.9349 5.19961 20.1529 5.10331 20.376 5.08264C20.4496 5.07586 20.5243 5.078 20.5977 5.08752Z" fill="white" stroke="white" stroke-width="0.5"/>
</svg>
