<svg width="24" height="24" viewBox="0 0 24 24" fill="none" xmlns="http://www.w3.org/2000/svg">
<path d="M17.835 4.75195C18.2254 4.3615 18.8585 4.36162 19.249 4.75195C19.6396 5.14248 19.6396 5.77549 19.249 6.16602L13.415 11.999L19.249 17.833C19.6396 18.2235 19.6396 18.8575 19.249 19.248C18.8585 19.6381 18.2253 19.6384 17.835 19.248L12.001 13.4131L6.16797 19.2471C6.11931 19.2958 6.06695 19.3384 6.01172 19.375V19.376C5.62345 19.6323 5.09579 19.589 4.75391 19.2471C4.36352 18.8566 4.36346 18.2235 4.75391 17.833L10.5869 11.999L4.75391 6.16602C4.36341 5.77549 4.36339 5.14247 4.75391 4.75195C5.14442 4.36146 5.77745 4.36147 6.16797 4.75195L12.001 10.585L17.835 4.75195Z" fill="white" stroke="white" stroke-width="0.5"/>
</svg>
