<svg width="24" height="24" viewBox="0 0 24 24" fill="none" xmlns="http://www.w3.org/2000/svg">
<path d="M15.75 13.5V12.7499M15.75 13.5L12.75 13.5M18.75 13.5L17.25 13.5H15.75M9.75 14.25V20.25C9.75 21.0784 10.4216 21.75 11.25 21.75H20.25C21.0784 21.75 21.75 21.0784 21.75 20.25V11.25C21.75 10.4216 21.0784 9.75 20.25 9.75H14.25M9.75 14.25V11.25C9.75 10.6948 10.0516 10.21 10.5 9.95067M9.75 14.25H3.75C2.92157 14.25 2.25 13.5784 2.25 12.75V3.75C2.25 2.92157 2.92157 2.25 3.75 2.25H12.75C13.5784 2.25 14.25 2.92157 14.25 3.75V9.75M14.25 9.75H11.25C10.9768 9.75 10.7206 9.82305 10.5 9.95067M17.25 13.5C17.25 14.4325 17.4991 16.2277 15.75 17.5776M10.5 9.95067V9M15.75 17.5776C15.1545 18.0372 14.4143 18.4452 13.5 18.75M15.75 17.5776C15.3119 17.2395 14.9521 16.8734 14.6589 16.5M15.75 17.5776C16.3455 18.0372 17.0857 18.4452 18 18.75M6 11.25V9M6 9V7.5C6 6.25736 7.00736 5.25 8.25 5.25C9.49264 5.25 10.5 6.25736 10.5 7.5V9M6 9H10.5" stroke="white" stroke-width="1.5" stroke-linecap="round" stroke-linejoin="round"/>
</svg>
